<svg version="1.1" id="Layer_1" xmlns="http://www.w3.org/2000/svg" xmlns:xlink="http://www.w3.org/1999/xlink" x="0px" y="0px"
	 width="100%" viewBox="0 0 992 976" enable-background="new 0 0 992 976" xml:space="preserve">
<path fill="#000000" opacity="1.000000" stroke="none" 
	d="
M804.223389,533.879761 
	C799.039612,561.562927 791.159241,587.966736 779.745972,613.274109 
	C758.591309,660.181824 728.490112,700.365295 689.351562,733.808044 
	C641.352539,774.821899 586.130066,800.436829 524.004272,811.010498 
	C493.009949,816.285706 461.795929,816.910400 430.482422,813.458008 
	C361.474243,805.849731 300.317810,779.796936 247.391205,735.002991 
	C188.730133,685.355774 151.137848,622.666809 134.090958,547.763489 
	C129.697723,528.459778 127.429161,508.850220 126.507378,489.002594 
	C124.401901,443.667694 131.147079,399.778137 146.633972,357.224884 
	C170.012283,292.988495 209.384094,240.527069 264.049194,199.621155 
	C309.736786,165.433090 360.985107,143.848404 417.425568,135.990540 
	C508.088379,123.368118 591.855042,142.576584 666.362427,196.086212 
	C740.484924,249.319427 786.162048,321.550537 803.530334,411.400116 
	C808.577515,437.509949 810.191833,463.870331 809.086060,490.369232 
	C808.483582,504.805481 806.762146,519.187622 804.223389,533.879761 
M149.490555,429.942841 
	C147.480606,450.310913 145.601089,470.626343 147.088165,491.197479 
	C148.313492,508.147614 150.052124,524.987915 153.737778,541.538513 
	C168.945679,609.830200 202.487305,667.562073 254.843475,714.010498 
	C310.086456,763.020020 374.902496,789.756897 448.526733,794.457764 
	C474.289490,796.102661 500.052185,794.571289 525.571960,789.768860 
	C586.740051,778.258057 640.478210,751.773743 685.870300,709.268311 
	C749.316345,649.856995 783.229492,576.212952 788.485046,489.573212 
	C790.121643,462.593750 787.862061,435.679230 782.260132,409.162842 
	C768.619995,344.596985 738.359253,289.074005 690.802124,243.279282 
	C634.386719,188.954697 566.734619,159.191620 488.773865,153.578018 
	C456.961975,151.287369 425.193207,153.583572 394.079590,161.381012 
	C300.000671,184.958267 229.751297,239.455109 183.476471,324.627960 
	C165.739655,357.274139 155.008896,392.340881 149.490555,429.942841 
z"/>
<path fill="#000000" opacity="1.000000" stroke="none" 
	d="
M633.000854,488.001892 
	C648.145081,482.218811 660.302795,472.611115 671.494568,461.821411 
	C690.574890,443.426514 707.990540,423.418793 726.329041,404.301453 
	C727.786072,402.782501 728.931824,400.801636 731.675598,400.223480 
	C734.928284,408.231720 736.405884,416.703888 738.094910,425.076752 
	C742.662292,447.717773 743.848267,470.682739 742.089233,493.611084 
	C738.759827,537.009583 725.794250,577.525024 702.048706,614.125244 
	C657.678711,682.514893 594.818054,723.515015 514.807556,738.031128 
	C477.512604,744.797424 440.268524,743.058838 403.395782,734.235046 
	C401.418671,733.761902 399.043793,733.925659 397.267639,731.616211 
	C441.510040,704.877075 468.824982,668.857361 460.536987,613.159058 
	C466.671783,615.900330 470.701813,619.394958 475.132599,622.207214 
	C479.209808,624.795105 483.334503,627.371948 487.081696,630.395630 
	C490.063629,632.801758 491.969604,632.014465 494.249237,629.591553 
	C500.871582,622.552856 507.522430,615.535034 514.365967,608.713562 
	C516.797180,606.290222 516.379333,604.711487 514.162415,602.573181 
	C505.167084,593.896729 496.318024,585.068726 487.335358,576.378967 
	C462.903656,552.744019 438.436737,529.145386 413.970978,505.545654 
	C408.837708,500.594055 408.800537,500.608734 403.849762,505.729340 
	C380.453613,529.928223 357.062012,554.131531 333.674622,578.338928 
	C327.519348,584.709961 327.509491,584.739502 334.000885,591.007141 
	C342.735016,599.440186 351.502869,607.838257 360.821594,616.794617 
	C375.956757,601.178650 390.831604,585.831177 406.048676,570.130676 
	C414.091309,579.420837 418.574615,589.474548 421.270966,600.392700 
	C431.825287,643.130066 396.537689,681.178772 361.270538,688.462097 
	C340.934448,692.661865 322.466614,688.955627 305.442596,677.955627 
	C279.988007,661.508179 258.742188,640.737122 244.996124,613.404785 
	C219.424744,562.559265 253.055069,514.082153 296.190369,504.324982 
	C308.835785,501.464569 321.063141,503.899689 332.463898,509.823303 
	C335.818420,511.566193 337.738922,510.997131 340.153168,508.452271 
	C350.703461,497.331146 361.438873,486.385925 372.050049,475.322174 
	C375.746246,471.468353 375.621063,470.269226 371.054077,467.227600 
	C348.188232,451.998932 323.089935,447.307190 296.181396,451.797943 
	C265.687347,456.887085 242.001556,473.780396 221.145126,495.487213 
	C213.835587,503.094788 207.641922,511.528412 202.251678,520.583618 
	C201.279739,522.216309 200.795319,524.347961 198.623901,525.098450 
	C183.279465,465.863922 193.673843,365.305054 268.271240,289.174500 
	C348.348389,207.451569 457.119110,196.513367 518.798584,211.620255 
	C518.720886,213.920395 516.752808,214.937210 515.462830,216.337753 
	C498.307465,234.963593 480.220764,252.740891 463.879547,272.102356 
	C450.604950,287.830414 441.315948,305.553528 440.608215,326.642181 
	C440.287445,336.200195 442.420868,345.501465 446.673553,354.156799 
	C454.011230,369.090912 465.160950,380.548553 479.351593,389.046661 
	C492.790283,397.094482 507.110779,398.666504 522.141052,394.321106 
	C524.316528,393.692169 526.419922,392.504395 529.336914,392.955902 
	C528.547668,398.428741 526.167114,403.379303 525.242920,408.701630 
	C521.906921,427.913910 527.350952,444.719818 539.308105,459.478241 
	C557.630859,482.093628 581.238098,493.868713 610.739746,492.660095 
	C618.278381,492.351288 625.558594,490.707733 633.000854,488.001892 
z"/>
<path fill="#000000" opacity="1.000000" stroke="none" 
	d="
M574.375366,401.651031 
	C573.926025,392.158569 577.284546,384.303802 582.383057,377.088623 
	C592.433411,362.865875 605.399231,351.231262 616.996277,338.381866 
	C623.802917,330.840149 630.954773,323.610565 637.791138,316.094849 
	C639.976135,313.692719 641.495911,313.594238 643.892029,315.859406 
	C660.597656,331.651886 677.418091,347.322784 694.181885,363.053864 
	C694.887146,363.715637 695.395813,364.586914 696.121826,365.522675 
	C691.154114,372.400482 684.866089,377.912964 679.201965,383.967865 
	C666.121460,397.950806 653.733093,412.628296 639.441101,425.420227 
	C618.334595,444.311462 588.505127,437.669098 576.750183,411.710297 
	C575.359497,408.639313 574.531189,405.444214 574.375366,401.651031 
z"/>
<path fill="#000000" opacity="1.000000" stroke="none" 
	d="
M578.964600,255.032471 
	C587.467346,263.023407 595.644714,270.845215 604.000916,278.471069 
	C606.529602,280.778748 606.761963,282.526215 604.346741,285.029510 
	C587.249878,302.749664 570.993042,321.273010 553.392578,338.509399 
	C548.113037,343.679749 541.871155,347.466309 534.826477,349.902557 
	C529.399414,351.779419 524.148376,351.637238 518.759644,349.612610 
	C505.121826,344.488617 495.395325,330.475983 496.678040,317.399323 
	C497.323120,310.822754 501.074677,305.611908 504.646698,300.430298 
	C514.616943,285.967194 527.591064,274.130280 539.349304,261.232178 
	C545.401672,254.593018 551.743591,248.215942 557.731750,241.521057 
	C560.240967,238.715729 561.990051,238.753143 564.580872,241.396896 
	C569.119202,246.027939 573.981323,250.341553 578.964600,255.032471 
z"/>
</svg>